<svg xmlns="http://www.w3.org/2000/svg" version="1.1" xmlns:xlink="http://www.w3.org/1999/xlink" xmlns:svgjs="http://svgjs.dev/svgjs" width="128" height="128" viewBox="0 0 128 128"><g transform="matrix(0.8046875,0,0,0.8046875,12.333870967741937,38.241074523396875)"><svg viewBox="0 0 155 78" data-background-color="#f7f7f2" preserveAspectRatio="xMidYMid meet" height="64" width="128" xmlns="http://www.w3.org/2000/svg" xmlns:xlink="http://www.w3.org/1999/xlink"><g id="tight-bounds" transform="matrix(1,0,0,1,0.25,0.013518197573660018)"><svg viewBox="0 0 154.5 77.97296360485268" height="77.97296360485268" width="154.5"><g><svg viewBox="0 0 154.5 77.97296360485268" height="77.97296360485268" width="154.5"><g><svg viewBox="0 0 154.5 77.97296360485268" height="77.97296360485268" width="154.5"><g id="textblocktransform"><svg viewBox="0 0 154.5 77.97296360485268" height="77.97296360485268" width="154.5" id="textblock"><g><svg viewBox="0 0 154.5 77.97296360485268" height="77.97296360485268" width="154.5"><g transform="matrix(1,0,0,1,0,0)"><svg width="154.5" viewBox="2.69 -35.55 70.43 35.55" height="77.97296360485268" data-palette-color="#474973"><path d="M2.69-35.55L13.94-35.55 21.88-10.82 29.79-35.55 41.06-35.55 41.06 0 32.47 0 32.47-8.3 33.3-25.29 24.71 0 19.04 0 10.42-25.32 11.25-8.3 11.25 0 2.69 0 2.69-35.55ZM72.95-31.15L56.13-6.59 73.12-6.59 73.12 0 45.43 0 45.43-4.52 62.38-28.93 45.33-28.93 45.33-35.55 72.95-35.55 72.95-31.15Z" opacity="1" transform="matrix(1,0,0,1,0,0)" fill="#474973" class="undefined-text-0" data-fill-palette-color="primary" id="text-0"></path></svg></g></svg></g></svg></g></svg></g></svg></g><defs></defs></svg><rect width="154.5" height="77.97296360485268" fill="none" stroke="none" visibility="hidden"></rect></g></svg></g></svg>